<svg xmlns="http://www.w3.org/2000/svg" xmlns:xlink="http://www.w3.org/1999/xlink" contentStyleType="text/css" height="209px" preserveAspectRatio="none" style="width:405px;height:209px;background:#FFFFFF;" version="1.1" viewBox="0 0 405 209" width="405px" zoomAndPan="magnify"><defs/><g><rect fill="#FFFFFF" height="29.3105" style="stroke:#181818;stroke-width:1.0;" width="10" x="363.7231" y="67.7988"/><rect fill="#FFFFFF" height="29.3105" style="stroke:#181818;stroke-width:1.0;" width="10" x="363.7231" y="126.4199"/><line style="stroke:#181818;stroke-width:0.5;stroke-dasharray:5.0,5.0;" x1="27" x2="27" y1="36.4883" y2="173.7305"/><line style="stroke:#181818;stroke-width:0.5;stroke-dasharray:5.0,5.0;" x1="368.6743" x2="368.6743" y1="36.4883" y2="173.7305"/><rect fill="#E2E2F0" height="30.4883" rx="2.5" ry="2.5" style="stroke:#181818;stroke-width:0.5;" width="44.3652" x="5" y="5"/><text fill="#000000" font-family="sans-serif" font-size="14" lengthAdjust="spacing" textLength="30.3652" x="12" y="25.5352">User</text><rect fill="#E2E2F0" height="30.4883" rx="2.5" ry="2.5" style="stroke:#181818;stroke-width:0.5;" width="44.3652" x="5" y="172.7305"/><text fill="#000000" font-family="sans-serif" font-size="14" lengthAdjust="spacing" textLength="30.3652" x="12" y="193.2656">User</text><rect fill="#E2E2F0" height="30.4883" rx="2.5" ry="2.5" style="stroke:#181818;stroke-width:0.5;" width="62.0977" x="337.6743" y="5"/><text fill="#000000" font-family="sans-serif" font-size="14" lengthAdjust="spacing" textLength="48.0977" x="344.6743" y="25.5352">System</text><rect fill="#E2E2F0" height="30.4883" rx="2.5" ry="2.5" style="stroke:#181818;stroke-width:0.5;" width="62.0977" x="337.6743" y="172.7305"/><text fill="#000000" font-family="sans-serif" font-size="14" lengthAdjust="spacing" textLength="48.0977" x="344.6743" y="193.2656">System</text><rect fill="#FFFFFF" height="29.3105" style="stroke:#181818;stroke-width:1.0;" width="10" x="363.7231" y="67.7988"/><rect fill="#FFFFFF" height="29.3105" style="stroke:#181818;stroke-width:1.0;" width="10" x="363.7231" y="126.4199"/><polygon fill="#181818" points="351.7231,63.7988,361.7231,67.7988,351.7231,71.7988,355.7231,67.7988" style="stroke:#181818;stroke-width:1.0;"/><line style="stroke:#181818;stroke-width:1.0;" x1="27.1826" x2="357.7231" y1="67.7988" y2="67.7988"/><text fill="#000000" font-family="sans-serif" font-size="13" font-weight="bold" lengthAdjust="spacing" textLength="8.5757" x="34.1826" y="63.0566">1</text><text fill="#000000" font-family="sans-serif" font-size="13" lengthAdjust="spacing" textLength="246.7271" x="46.7583" y="63.0566">Ask the system to show the Login Page</text><polygon fill="#181818" points="38.1826,93.1094,28.1826,97.1094,38.1826,101.1094,34.1826,97.1094" style="stroke:#181818;stroke-width:1.0;"/><line style="stroke:#181818;stroke-width:1.0;stroke-dasharray:2.0,2.0;" x1="32.1826" x2="367.7231" y1="97.1094" y2="97.1094"/><text fill="#000000" font-family="sans-serif" font-size="13" font-weight="bold" lengthAdjust="spacing" textLength="8.5757" x="44.1826" y="92.3672">2</text><text fill="#000000" font-family="sans-serif" font-size="13" lengthAdjust="spacing" textLength="136.7729" x="56.7583" y="92.3672">Shows the Login Page</text><polygon fill="#181818" points="351.7231,122.4199,361.7231,126.4199,351.7231,130.4199,355.7231,126.4199" style="stroke:#181818;stroke-width:1.0;"/><line style="stroke:#181818;stroke-width:1.0;" x1="27.1826" x2="357.7231" y1="126.4199" y2="126.4199"/><text fill="#000000" font-family="sans-serif" font-size="13" font-weight="bold" lengthAdjust="spacing" textLength="8.5757" x="34.1826" y="121.6777">3</text><text fill="#000000" font-family="sans-serif" font-size="13" lengthAdjust="spacing" textLength="234.2666" x="46.7583" y="121.6777">Fill the email and password and send</text><polygon fill="#181818" points="38.1826,151.7305,28.1826,155.7305,38.1826,159.7305,34.1826,155.7305" style="stroke:#181818;stroke-width:1.0;"/><line style="stroke:#181818;stroke-width:1.0;stroke-dasharray:2.0,2.0;" x1="32.1826" x2="367.7231" y1="155.7305" y2="155.7305"/><text fill="#000000" font-family="sans-serif" font-size="13" font-weight="bold" lengthAdjust="spacing" textLength="8.5757" x="44.1826" y="150.9883">4</text><text fill="#000000" font-family="sans-serif" font-size="13" lengthAdjust="spacing" textLength="299.9648" x="56.7583" y="150.9883">Login Successfully done and show Select Profile</text><!--SRC=[XOyn3i8m34NtdC8RK-dU0Oc5YG6fuW0cSTi89ocnGyNjeIqJ835Ptz9xtzuCggCqTJqoHYs1jpQ5MkXMA5ggdCS-Op06YwPOmeMoCMUX3DKEseSeXGRsSWKT26J9e0baIDEoEgRUHpXXJmQj-ZiglJ6p3gXUebdOGFk2v9DozCbzrHyyyu9HGC-0qS688bFARWb2qVrlNplROYs9T8Nv0Iv5MWtpEoqnMOLJJftd7uSz0G00]--></g></svg>